<?xml version="1.0" encoding="utf-8"?>
<!-- Generator: Adobe Illustrator 24.0.3, SVG Export Plug-In . SVG Version: 6.00 Build 0)  -->
<svg version="1.1" id="Capa_1" xmlns="http://www.w3.org/2000/svg" xmlns:xlink="http://www.w3.org/1999/xlink" x="0px" y="0px"
	 viewBox="0 0 251 59.8" style="enable-background:new 0 0 251 59.8;" xml:space="preserve">
<style type="text/css">
	.st0{fill:none;}
	.st1{enable-background:new    ;}
	.st2{fill:#454544;}
	.st3{fill:#4E4D4D;stroke:#4E4D4D;stroke-width:0.608;stroke-miterlimit:10;}
	.st4{fill:#454544;stroke:#454544;stroke-width:0.426;stroke-miterlimit:10;}
	.st5{clip-path:url(#SVGID_2_);}
	.st6{fill:url(#B35711E137C61FE7_1_);}
	.st7{fill:#26A0C4;stroke:#26A0C4;stroke-width:0.426;stroke-miterlimit:10;}
	.st8{clip-path:url(#SVGID_4_);}
	.st9{fill:url(#B35711E137C61FE2_1_);}
	.st10{fill:#454544;stroke:#454444;stroke-width:0.608;stroke-miterlimit:10;}
</style>
<pattern  y="59.8" width="371" height="342" patternUnits="userSpaceOnUse" id="pattern" viewBox="0 -342 371 342" style="overflow:visible;">
	<g>
		<rect y="-342" class="st0" width="371" height="342"/>
		
			<image style="overflow:visible;enable-background:new    ;" width="371" height="342" xlink:href="4B19FFA1FFFE90DD.png"  transform="matrix(1 0 0 -1 0 0)">
		</image>
	</g>
</pattern>
<pattern  y="59.8" width="371" height="346" patternUnits="userSpaceOnUse" id="pattern-2" viewBox="0 -346 371 346" style="overflow:visible;">
	<g>
		<rect y="-346" class="st0" width="371" height="346"/>
		
			<image style="overflow:visible;enable-background:new    ;" width="371" height="346" xlink:href="4B19FFA1FFFE90DF.png"  transform="matrix(1 0 0 -1 0 0)">
		</image>
	</g>
</pattern>
<g id="Grupo_392" transform="translate(-136.003 -165.946)">
	<g class="st1">
		<path class="st2" d="M140.7,223.8V217h0.7v6.8H140.7z"/>
		<path class="st2" d="M148.6,217c0.4,0,0.7,0.1,1.1,0.2c0.3,0.1,0.6,0.3,0.9,0.6c0.3,0.3,0.5,0.5,0.6,0.9s0.2,0.7,0.2,1.1v4h-0.7
			v-4c0-0.3-0.1-0.5-0.2-0.8c-0.1-0.2-0.3-0.5-0.4-0.7c-0.2-0.2-0.4-0.3-0.6-0.4s-0.5-0.2-0.8-0.2h-4.8v6H143V217H148.6z"/>
		<path class="st2" d="M158.6,217c0.4,0,0.7,0.1,1.1,0.2c0.3,0.1,0.6,0.3,0.9,0.6c0.3,0.3,0.5,0.5,0.6,0.9s0.2,0.7,0.2,1.1v4h-0.7
			v-4c0-0.3-0.1-0.5-0.2-0.8c-0.1-0.2-0.3-0.5-0.4-0.7c-0.2-0.2-0.4-0.3-0.6-0.4s-0.5-0.2-0.8-0.2h-4.8v6H153V217H158.6z"/>
		<path class="st2" d="M165.7,223.8c-0.4,0-0.7-0.1-1.1-0.2c-0.3-0.1-0.6-0.3-0.9-0.6c-0.3-0.3-0.5-0.5-0.6-0.9s-0.2-0.7-0.2-1.1
			v-1.2c0-0.4,0.1-0.7,0.2-1.1s0.3-0.6,0.6-0.9c0.3-0.3,0.5-0.5,0.9-0.6c0.3-0.1,0.7-0.2,1.1-0.2h5c0.4,0,0.7,0.1,1.1,0.2
			c0.3,0.1,0.6,0.3,0.9,0.6c0.3,0.3,0.5,0.5,0.6,0.9s0.2,0.7,0.2,1.1v1.2c0,0.4-0.1,0.7-0.2,1.1s-0.3,0.6-0.6,0.9
			c-0.3,0.3-0.5,0.5-0.9,0.6c-0.3,0.1-0.7,0.2-1.1,0.2H165.7z M163.7,219.8v1.2c0,0.3,0.1,0.5,0.2,0.8c0.1,0.2,0.3,0.5,0.4,0.6
			c0.2,0.2,0.4,0.3,0.6,0.4c0.2,0.1,0.5,0.2,0.8,0.2h5c0.3,0,0.5-0.1,0.8-0.2c0.2-0.1,0.5-0.3,0.7-0.4c0.2-0.2,0.3-0.4,0.4-0.6
			s0.2-0.5,0.2-0.8v-1.2c0-0.3-0.1-0.5-0.2-0.8s-0.3-0.5-0.4-0.6c-0.2-0.2-0.4-0.3-0.7-0.4c-0.2-0.1-0.5-0.2-0.8-0.2h-5
			c-0.3,0-0.5,0.1-0.8,0.2c-0.2,0.1-0.5,0.3-0.6,0.4c-0.2,0.2-0.3,0.4-0.4,0.6C163.8,219.2,163.7,219.5,163.7,219.8z"/>
		<path class="st2" d="M179.7,223.8h-0.2l-5.1-6.8h0.9l4.4,5.8l4.5-5.8h0.9l-5.2,6.8H179.7z"/>
		<path class="st2" d="M187.2,223.8c-0.4,0-0.8-0.1-1.2-0.3s-0.6-0.5-0.8-0.9c-0.1-0.3-0.2-0.5-0.2-0.8c0-0.3,0.1-0.6,0.2-0.8
			c0.1-0.3,0.3-0.5,0.5-0.7c0.2-0.2,0.4-0.3,0.7-0.4c0.3-0.1,0.5-0.2,0.8-0.2h5.8v-0.5c0-0.2,0-0.4-0.1-0.6
			c-0.1-0.2-0.2-0.3-0.3-0.5c-0.1-0.1-0.3-0.2-0.5-0.3c-0.2-0.1-0.4-0.1-0.6-0.1h-4.9V217h4.9c0.3,0,0.6,0.1,0.9,0.2
			s0.5,0.3,0.7,0.5s0.4,0.4,0.5,0.7c0.1,0.3,0.2,0.5,0.2,0.8v4.6L187.2,223.8z M186.4,220.6c-0.2,0.1-0.3,0.3-0.5,0.5
			c-0.1,0.2-0.2,0.4-0.2,0.6c0,0.2,0,0.4,0.1,0.5c0.1,0.2,0.2,0.3,0.3,0.4s0.3,0.2,0.4,0.3c0.2,0.1,0.3,0.1,0.5,0.1h5.8v-2.7h-5.8
			c-0.2,0-0.3,0-0.4,0.1C186.6,220.5,186.5,220.5,186.4,220.6z"/>
		<path class="st2" d="M196.7,223c-0.3-0.3-0.5-0.5-0.6-0.9s-0.2-0.7-0.2-1.1v-1.2c0-0.4,0.1-0.7,0.2-1.1s0.3-0.6,0.6-0.9
			c0.3-0.3,0.5-0.5,0.9-0.6c0.3-0.1,0.7-0.2,1.1-0.2h5.7v0.7h-5.7c-0.3,0-0.5,0.1-0.8,0.2c-0.2,0.1-0.5,0.3-0.7,0.4
			c-0.2,0.2-0.3,0.4-0.4,0.6c-0.1,0.2-0.2,0.5-0.2,0.8v1.2c0,0.3,0.1,0.5,0.2,0.8c0.1,0.2,0.3,0.5,0.4,0.7c0.2,0.2,0.4,0.3,0.6,0.4
			c0.2,0.1,0.5,0.2,0.8,0.2h5.7v0.7h-5.7c-0.4,0-0.7-0.1-1.1-0.2C197.3,223.4,197,223.2,196.7,223z"/>
		<path class="st2" d="M206,223.8V217h0.7v6.8H206z"/>
		<path class="st2" d="M211.4,223.8c-0.4,0-0.7-0.1-1.1-0.2c-0.3-0.1-0.6-0.3-0.9-0.6c-0.3-0.3-0.5-0.5-0.6-0.9s-0.2-0.7-0.2-1.1
			v-1.2c0-0.4,0.1-0.7,0.2-1.1s0.3-0.6,0.6-0.9c0.3-0.3,0.5-0.5,0.9-0.6c0.3-0.1,0.7-0.2,1.1-0.2h5c0.4,0,0.7,0.1,1.1,0.2
			c0.3,0.1,0.6,0.3,0.9,0.6c0.3,0.3,0.5,0.5,0.6,0.9s0.2,0.7,0.2,1.1v1.2c0,0.4-0.1,0.7-0.2,1.1s-0.3,0.6-0.6,0.9
			c-0.3,0.3-0.5,0.5-0.9,0.6c-0.3,0.1-0.7,0.2-1.1,0.2H211.4z M209.4,219.8v1.2c0,0.3,0.1,0.5,0.2,0.8c0.1,0.2,0.3,0.5,0.4,0.6
			c0.2,0.2,0.4,0.3,0.6,0.4c0.2,0.1,0.5,0.2,0.8,0.2h5c0.3,0,0.5-0.1,0.8-0.2c0.2-0.1,0.5-0.3,0.7-0.4c0.2-0.2,0.3-0.4,0.4-0.6
			s0.2-0.5,0.2-0.8v-1.2c0-0.3-0.1-0.5-0.2-0.8s-0.3-0.5-0.4-0.6c-0.2-0.2-0.4-0.3-0.7-0.4c-0.2-0.1-0.5-0.2-0.8-0.2h-5
			c-0.3,0-0.5,0.1-0.8,0.2c-0.2,0.1-0.5,0.3-0.6,0.4c-0.2,0.2-0.3,0.4-0.4,0.6C209.4,219.2,209.4,219.5,209.4,219.8z M215.6,214.9
			l-1.9,1.9l-0.5-0.5l1.9-1.9L215.6,214.9z"/>
		<path class="st2" d="M226.2,217c0.4,0,0.7,0.1,1.1,0.2c0.3,0.1,0.6,0.3,0.9,0.6c0.3,0.3,0.5,0.5,0.6,0.9s0.2,0.7,0.2,1.1v4h-0.7
			v-4c0-0.3-0.1-0.5-0.2-0.8c-0.1-0.2-0.3-0.5-0.4-0.7c-0.2-0.2-0.4-0.3-0.6-0.4s-0.5-0.2-0.8-0.2h-4.8v6h-0.7V217H226.2z"/>
		<path class="st2" d="M230.4,224.6l0.3-1.7h0.8l-0.3,1.7H230.4z"/>
		<path class="st2" d="M237.8,223c-0.3-0.3-0.5-0.5-0.6-0.9s-0.2-0.7-0.2-1.1v-1.2c0-0.4,0.1-0.7,0.2-1.1s0.3-0.6,0.6-0.9
			c0.3-0.3,0.5-0.5,0.9-0.6c0.3-0.1,0.7-0.2,1.1-0.2h5.7v0.7h-5.7c-0.3,0-0.5,0.1-0.8,0.2c-0.2,0.1-0.5,0.3-0.7,0.4
			c-0.2,0.2-0.3,0.4-0.4,0.6c-0.1,0.2-0.2,0.5-0.2,0.8v1.2c0,0.3,0.1,0.5,0.2,0.8c0.1,0.2,0.3,0.5,0.4,0.7c0.2,0.2,0.4,0.3,0.6,0.4
			c0.2,0.1,0.5,0.2,0.8,0.2h5.7v0.7h-5.7c-0.4,0-0.7-0.1-1.1-0.2C238.4,223.4,238.1,223.2,237.8,223z"/>
		<path class="st2" d="M249.3,223.8c-0.4,0-0.8-0.1-1.2-0.3s-0.6-0.5-0.8-0.9c-0.1-0.3-0.2-0.5-0.2-0.8c0-0.3,0.1-0.6,0.2-0.8
			c0.1-0.3,0.3-0.5,0.5-0.7c0.2-0.2,0.4-0.3,0.7-0.4c0.3-0.1,0.5-0.2,0.8-0.2h5.8v-0.5c0-0.2,0-0.4-0.1-0.6
			c-0.1-0.2-0.2-0.3-0.3-0.5c-0.1-0.1-0.3-0.2-0.5-0.3c-0.2-0.1-0.4-0.1-0.6-0.1h-4.9V217h4.9c0.3,0,0.6,0.1,0.9,0.2
			s0.5,0.3,0.7,0.5s0.4,0.4,0.5,0.7c0.1,0.3,0.2,0.5,0.2,0.8v4.6L249.3,223.8z M248.5,220.6c-0.2,0.1-0.3,0.3-0.5,0.5
			c-0.1,0.2-0.2,0.4-0.2,0.6c0,0.2,0,0.4,0.1,0.5c0.1,0.2,0.2,0.3,0.3,0.4s0.3,0.2,0.4,0.3c0.2,0.1,0.3,0.1,0.5,0.1h5.8v-2.7h-5.8
			c-0.2,0-0.3,0-0.4,0.1C248.8,220.5,248.6,220.5,248.5,220.6z"/>
		<path class="st2" d="M258.8,217v4c0,0.3,0.1,0.6,0.2,0.8c0.1,0.2,0.3,0.5,0.4,0.6c0.2,0.2,0.4,0.3,0.7,0.4
			c0.2,0.1,0.5,0.2,0.8,0.2h5.7v0.7h-5.7c-0.4,0-0.7-0.1-1.1-0.2c-0.3-0.1-0.6-0.3-0.9-0.6c-0.2-0.2-0.4-0.5-0.6-0.9
			s-0.2-0.7-0.2-1.1v-4H258.8z"/>
		<path class="st2" d="M267.6,223.8V217h0.7v6.8H267.6z"/>
		<path class="st2" d="M270.2,217h6.7c0.4,0,0.7,0.1,1.1,0.2c0.3,0.1,0.6,0.3,0.9,0.6c0.3,0.3,0.5,0.5,0.6,0.9
			c0.1,0.3,0.2,0.7,0.2,1.1v1.2c0,0.4-0.1,0.7-0.2,1.1c-0.1,0.3-0.3,0.6-0.6,0.9c-0.3,0.3-0.5,0.5-0.9,0.6c-0.3,0.1-0.7,0.2-1.1,0.2
			h-6.7V217z M278.9,219.7c0-0.3-0.1-0.5-0.2-0.8c-0.1-0.2-0.3-0.5-0.4-0.6c-0.2-0.2-0.4-0.3-0.7-0.4c-0.2-0.1-0.5-0.2-0.8-0.2h-5.9
			v5.3h5.9c0.3,0,0.5-0.1,0.8-0.2c0.2-0.1,0.5-0.3,0.6-0.4c0.2-0.2,0.3-0.4,0.4-0.6c0.1-0.2,0.2-0.5,0.2-0.8V219.7z"/>
		<path class="st2" d="M282.6,223.8c-0.4,0-0.8-0.1-1.2-0.3s-0.6-0.5-0.8-0.9c-0.1-0.3-0.2-0.5-0.2-0.8c0-0.3,0.1-0.6,0.2-0.8
			c0.1-0.3,0.3-0.5,0.5-0.7c0.2-0.2,0.4-0.3,0.7-0.4c0.3-0.1,0.5-0.2,0.8-0.2h5.8v-0.5c0-0.2,0-0.4-0.1-0.6
			c-0.1-0.2-0.2-0.3-0.3-0.5c-0.1-0.1-0.3-0.2-0.5-0.3c-0.2-0.1-0.4-0.1-0.6-0.1H282V217h4.9c0.3,0,0.6,0.1,0.9,0.2s0.5,0.3,0.7,0.5
			c0.2,0.2,0.4,0.4,0.5,0.7c0.1,0.3,0.2,0.5,0.2,0.8v4.6L282.6,223.8z M281.8,220.6c-0.2,0.1-0.3,0.3-0.5,0.5
			c-0.1,0.2-0.2,0.4-0.2,0.6c0,0.2,0,0.4,0.1,0.5c0.1,0.2,0.2,0.3,0.3,0.4s0.3,0.2,0.4,0.3s0.3,0.1,0.5,0.1h5.8v-2.7h-5.8
			c-0.2,0-0.3,0-0.4,0.1C282,220.5,281.9,220.5,281.8,220.6z"/>
		<path class="st2" d="M291.3,217h6.7c0.4,0,0.7,0.1,1.1,0.2c0.3,0.1,0.6,0.3,0.9,0.6c0.3,0.3,0.5,0.5,0.6,0.9
			c0.1,0.3,0.2,0.7,0.2,1.1v1.2c0,0.4-0.1,0.7-0.2,1.1c-0.1,0.3-0.3,0.6-0.6,0.9c-0.3,0.3-0.5,0.5-0.9,0.6c-0.3,0.1-0.7,0.2-1.1,0.2
			h-6.7V217z M300,219.7c0-0.3-0.1-0.5-0.2-0.8c-0.1-0.2-0.3-0.5-0.4-0.6c-0.2-0.2-0.4-0.3-0.7-0.4c-0.2-0.1-0.5-0.2-0.8-0.2h-5.9
			v5.3h5.9c0.3,0,0.5-0.1,0.8-0.2c0.2-0.1,0.5-0.3,0.6-0.4c0.2-0.2,0.3-0.4,0.4-0.6c0.1-0.2,0.2-0.5,0.2-0.8V219.7z"/>
		<path class="st2" d="M313.6,217v4c0,0.4-0.1,0.7-0.2,1.1c-0.1,0.3-0.3,0.6-0.6,0.9c-0.3,0.3-0.5,0.5-0.9,0.6
			c-0.3,0.1-0.7,0.2-1.1,0.2h-5V223h5c0.3,0,0.5-0.1,0.8-0.2c0.2-0.1,0.5-0.3,0.6-0.4c0.2-0.2,0.3-0.4,0.4-0.6
			c0.1-0.2,0.2-0.5,0.2-0.8v-0.2H308c-0.4,0-0.7-0.1-1.1-0.2c-0.3-0.1-0.6-0.3-0.9-0.6c-0.3-0.3-0.5-0.5-0.6-0.9
			c-0.1-0.3-0.2-0.7-0.2-1.1V217h0.7v1.1c0,0.3,0.1,0.5,0.2,0.8c0.1,0.2,0.3,0.5,0.4,0.7c0.2,0.2,0.4,0.3,0.6,0.4s0.5,0.2,0.8,0.2
			h4.8V217H313.6z"/>
		<path class="st2" d="M325.4,223.8h-6.5V223h6.5c0.2,0,0.3,0,0.4-0.1c0.1-0.1,0.3-0.1,0.4-0.2s0.2-0.2,0.2-0.4
			c0.1-0.1,0.1-0.3,0.1-0.4c0-0.2,0-0.3-0.1-0.4c-0.1-0.1-0.1-0.3-0.2-0.4c-0.1-0.1-0.2-0.2-0.4-0.2c-0.1-0.1-0.3-0.1-0.4-0.1h-5
			c-0.3,0-0.5,0-0.7-0.1c-0.2-0.1-0.4-0.2-0.6-0.4s-0.3-0.4-0.4-0.6c-0.1-0.2-0.1-0.5-0.1-0.7c0-0.3,0-0.5,0.1-0.7
			c0.1-0.2,0.2-0.4,0.4-0.6s0.4-0.3,0.6-0.4c0.2-0.1,0.5-0.2,0.7-0.2h6.5v0.7h-6.5c-0.2,0-0.3,0-0.4,0.1c-0.1,0.1-0.3,0.1-0.4,0.2
			c-0.1,0.1-0.2,0.2-0.2,0.3c-0.1,0.1-0.1,0.3-0.1,0.4c0,0.3,0.1,0.6,0.4,0.8c0.2,0.2,0.5,0.3,0.8,0.3h5c0.3,0,0.5,0,0.7,0.1
			c0.2,0.1,0.4,0.2,0.6,0.4c0.2,0.2,0.3,0.4,0.4,0.6c0.1,0.2,0.1,0.5,0.1,0.7c0,0.3,0,0.5-0.1,0.7s-0.2,0.4-0.4,0.6
			c-0.2,0.2-0.4,0.3-0.6,0.4C325.9,223.7,325.6,223.8,325.4,223.8z"/>
		<path class="st2" d="M329.3,219c0-0.3,0.1-0.6,0.2-0.8c0.1-0.3,0.3-0.5,0.5-0.7c0.2-0.2,0.4-0.3,0.7-0.4s0.5-0.2,0.8-0.2h4.6
			c0.3,0,0.6,0.1,0.8,0.2c0.3,0.1,0.5,0.3,0.7,0.4s0.4,0.4,0.5,0.7c0.1,0.3,0.2,0.5,0.2,0.8c0,0.3-0.1,0.6-0.2,0.8
			c-0.1,0.3-0.3,0.5-0.5,0.7c-0.2,0.2-0.4,0.3-0.7,0.4c-0.3,0.1-0.5,0.2-0.8,0.2h-6v0.9c0,0.2,0.1,0.3,0.2,0.4
			c0.1,0.1,0.2,0.2,0.3,0.3c0.1,0.1,0.3,0.1,0.4,0.2s0.3,0.1,0.5,0.1h6.2v0.7h-6.3c-0.2,0-0.5,0-0.8-0.1c-0.3-0.1-0.5-0.2-0.7-0.3
			c-0.2-0.1-0.4-0.3-0.5-0.5c-0.1-0.2-0.2-0.4-0.2-0.7V219z M331.5,217.7c-0.1,0-0.3,0-0.5,0.1s-0.3,0.2-0.5,0.3
			c-0.1,0.1-0.3,0.3-0.4,0.4s-0.1,0.3-0.1,0.5v1.4h6c0.2,0,0.4,0,0.5-0.1c0.2-0.1,0.3-0.2,0.5-0.3c0.1-0.1,0.2-0.3,0.3-0.4
			s0.1-0.3,0.1-0.5s0-0.4-0.1-0.5c-0.1-0.2-0.2-0.3-0.3-0.4c-0.1-0.1-0.3-0.2-0.5-0.3c-0.2-0.1-0.4-0.1-0.5-0.1H331.5z"/>
		<path class="st2" d="M340.2,223.8v-4c0-0.4,0.1-0.7,0.2-1.1c0.1-0.3,0.3-0.6,0.6-0.9c0.3-0.3,0.5-0.5,0.9-0.6
			c0.3-0.1,0.7-0.2,1.1-0.2h5v0.7h-5c-0.3,0-0.5,0.1-0.8,0.2c-0.2,0.1-0.5,0.3-0.6,0.4c-0.2,0.2-0.3,0.4-0.4,0.6
			c-0.1,0.2-0.2,0.5-0.2,0.8v4H340.2z"/>
		<path class="st2" d="M353.4,223.8h-0.2l-5.1-6.8h0.9l4.4,5.8l4.5-5.8h0.9l-5.2,6.8H353.4z"/>
		<path class="st2" d="M360.4,223.8V217h0.7v6.8H360.4z"/>
		<path class="st2" d="M363.8,223c-0.3-0.3-0.5-0.5-0.6-0.9c-0.1-0.3-0.2-0.7-0.2-1.1v-1.2c0-0.4,0.1-0.7,0.2-1.1
			c0.1-0.3,0.3-0.6,0.6-0.9c0.3-0.3,0.5-0.5,0.9-0.6c0.3-0.1,0.7-0.2,1.1-0.2h5.7v0.7h-5.7c-0.3,0-0.5,0.1-0.8,0.2
			c-0.2,0.1-0.5,0.3-0.7,0.4c-0.2,0.2-0.3,0.4-0.4,0.6c-0.1,0.2-0.2,0.5-0.2,0.8v1.2c0,0.3,0.1,0.5,0.2,0.8c0.1,0.2,0.3,0.5,0.4,0.7
			c0.2,0.2,0.4,0.3,0.6,0.4c0.2,0.1,0.5,0.2,0.8,0.2h5.7v0.7h-5.7c-0.4,0-0.7-0.1-1.1-0.2C364.4,223.4,364.1,223.2,363.8,223z"/>
		<path class="st2" d="M373.1,223.8V217h0.7v6.8H373.1z"/>
		<path class="st2" d="M378.5,223.8c-0.4,0-0.7-0.1-1.1-0.2c-0.3-0.1-0.6-0.3-0.9-0.6c-0.3-0.3-0.5-0.5-0.6-0.9
			c-0.1-0.3-0.2-0.7-0.2-1.1v-1.2c0-0.4,0.1-0.7,0.2-1.1c0.1-0.3,0.3-0.6,0.6-0.9c0.3-0.3,0.5-0.5,0.9-0.6c0.3-0.1,0.7-0.2,1.1-0.2
			h5c0.4,0,0.7,0.1,1.1,0.2c0.3,0.1,0.6,0.3,0.9,0.6c0.3,0.3,0.5,0.5,0.6,0.9c0.1,0.3,0.2,0.7,0.2,1.1v1.2c0,0.4-0.1,0.7-0.2,1.1
			c-0.1,0.3-0.3,0.6-0.6,0.9c-0.3,0.3-0.5,0.5-0.9,0.6c-0.3,0.1-0.7,0.2-1.1,0.2H378.5z M376.5,219.8v1.2c0,0.3,0.1,0.5,0.2,0.8
			c0.1,0.2,0.3,0.5,0.4,0.6c0.2,0.2,0.4,0.3,0.6,0.4c0.2,0.1,0.5,0.2,0.8,0.2h5c0.3,0,0.5-0.1,0.8-0.2c0.2-0.1,0.5-0.3,0.7-0.4
			c0.2-0.2,0.3-0.4,0.4-0.6c0.1-0.2,0.2-0.5,0.2-0.8v-1.2c0-0.3-0.1-0.5-0.2-0.8c-0.1-0.2-0.3-0.5-0.4-0.6c-0.2-0.2-0.4-0.3-0.7-0.4
			c-0.2-0.1-0.5-0.2-0.8-0.2h-5c-0.3,0-0.5,0.1-0.8,0.2c-0.2,0.1-0.5,0.3-0.6,0.4c-0.2,0.2-0.3,0.4-0.4,0.6
			C376.5,219.2,376.5,219.5,376.5,219.8z"/>
	</g>
	<g id="Grupo_372">
		<g id="Grupo_10" transform="translate(139.997 166.317)">
			<path id="Trazado_15" class="st3" d="M26.7,15.2l13.1-7.6l-0.1,15.2L26.7,15.2z"/>
			<path id="Trazado_16" class="st4" d="M39.8,22.8c0-0.1,6.4,3.7,6.4,3.7V3.9c0,0-6.5,3.9-6.4,3.7C39.9,7.6,39.8,22.8,39.8,22.8z"
				/>
			<path id="Trazado_17" class="st3" d="M12.3,39L26,31l-13.3-7.9L12.3,39z"/>
			<g id="Grupo_7" transform="translate(25.881 8.805)">
				<g>
					<defs>
						<polygon id="SVGID_1_" points="0,6.7 2,5.6 11.9,0 23.1,16.4 21.6,21.1 						"/>
					</defs>
					<clipPath id="SVGID_2_">
						<use xlink:href="#SVGID_1_"  style="overflow:visible;"/>
					</clipPath>
					<g id="Grupo_6" class="st5">
						
							<pattern  id="B35711E137C61FE7_1_" xlink:href="#pattern" patternTransform="matrix(0.3167 0 0 -0.3183 -5506.4224 -10836.1865)">
						</pattern>
						<rect id="B35711E137C61FE7" x="-49" y="-42.4" class="st6" width="117.5" height="108.9"/>
					</g>
				</g>
			</g>
			<path id="Trazado_19" class="st7" d="M6.7,42.2l6.5-3.7V15.1l36,21.2c0.8,0.6,1.9,0.6,2.7,0c0,0,0.8-0.7,0.8-1.3V0l-6.4,3.7
				l-0.1,22.7l-36-21.1C9.5,4.8,8.6,4.7,7.9,5.1C7.1,5.4,6.6,6.3,6.7,7.2V42.2"/>
			<g id="Grupo_9" transform="translate(4.936 17.61)">
				<g>
					<defs>
						<polygon id="SVGID_3_" points="11.3,18.9 22.4,12.7 1.6,0 0,1.7 						"/>
					</defs>
					<clipPath id="SVGID_4_">
						<use xlink:href="#SVGID_3_"  style="overflow:visible;"/>
					</clipPath>
					<g id="Grupo_8" class="st8">
						
							<pattern  id="B35711E137C61FE2_1_" xlink:href="#pattern-2" patternTransform="matrix(0.3167 0 0 -0.3146 -5524.9492 -10814.4639)">
						</pattern>
						<rect id="B35711E137C61FE2" x="-46.6" y="-46.7" class="st9" width="117.5" height="108.9"/>
					</g>
				</g>
			</g>
			<path id="Trazado_21" class="st10" d="M3.3,9.7C2.7,9.5,2,9.5,1.3,9.9c-0.7,0.4-1.2,1.1-1.2,1.9L0,45.9l6.5-3.7L6.4,19.3l36,21.2
				c0.6,0.5,1.4,0.6,2.1,0.4c0.9-0.3,1.4-1.1,1.5-2v-4.3L39.5,31L3.3,9.7z"/>
		</g>
		<g id="Grupo_11" transform="translate(200.697 174.055)">
			<path id="Trazado_22" class="st2" d="M0,22.9V0h2.5v22.8H0V22.9z"/>
			<path id="Trazado_23" class="st2" d="M25.2,22.9h-0.8L7.2,0h3.1l14.8,19.6L40,0h3.2L25.7,22.8h-0.5L25.2,22.9z"/>
			<path id="Trazado_24" class="st2" d="M50,5.9c-0.6,0.6-1.1,1.3-1.5,2.1C48.2,8.8,48,9.8,48,10.7v0.8h26.1V14H48v0.8
				c0,0.9,0.2,1.8,0.5,2.7c0.3,0.8,0.8,1.5,1.5,2.1c0.6,0.6,1.3,1.1,2.1,1.5c0.8,0.4,1.7,0.6,2.7,0.5h19.3v2.5H54.8
				c-1.2,0-2.5-0.3-3.6-0.8c-1.1-0.5-2.1-1.2-2.9-2c-0.8-0.9-1.5-1.9-2-2.9c-0.5-1.1-0.8-2.4-0.8-3.6v-4.1c0-1.2,0.3-2.5,0.8-3.6
				c0.5-1.1,1.2-2.1,2-2.9c0.9-0.8,1.9-1.5,2.9-2c1.1-0.5,2.4-0.8,3.6-0.8h19.3v2.5H54.8c-0.9,0-1.8,0.2-2.7,0.5
				C51.4,4.8,50.7,5.3,50,5.9z"/>
			<path id="Trazado_25" class="st2" d="M83,1.5v13.5c0,0.9,0.2,1.8,0.5,2.7c0.3,0.8,0.8,1.5,1.5,2.1c0.6,0.6,1.3,1.2,2.1,1.5
				c0.8,0.4,1.7,0.6,2.7,0.5H109v2.5H89.8c-1.2,0-2.5-0.3-3.6-0.8c-1.1-0.5-2.1-1.2-2.9-2c-0.8-0.9-1.5-1.9-2-2.9
				c-0.5-1.2-0.8-2.4-0.8-3.7V1.5H83z"/>
			<path id="Trazado_26" class="st7" d="M114.6,22.9V0h2.5v22.8h-2.5V22.9z"/>
			<path id="Trazado_27" class="st7" d="M125.3,20.1c-0.9-0.8-1.5-1.8-2-2.9c-0.5-1.1-0.8-2.4-0.8-3.6V9.3c0-1.2,0.3-2.5,0.8-3.6
				c0.5-1.1,1.2-2.1,2-2.9c0.9-0.8,1.9-1.5,2.9-2c1.1-0.5,2.4-0.8,3.6-0.8H151v2.5h-19.2c-0.9,0-1.8,0.2-2.7,0.5
				c-0.8,0.3-1.5,0.8-2.1,1.5c-0.6,0.6-1.1,1.3-1.5,2.1c-0.4,0.8-0.6,1.7-0.5,2.7v4.1c0,0.9,0.2,1.8,0.5,2.7
				c0.3,0.8,0.8,1.5,1.5,2.1c0.6,0.6,1.3,1.1,2.1,1.5c0.8,0.4,1.7,0.6,2.7,0.5h19.3v2.5h-19.2c-1.2,0-2.5-0.3-3.6-0.8
				C127.2,21.6,126.2,21,125.3,20.1z"/>
			<path id="Trazado_28" class="st7" d="M178.4,22.9h-21.7v-2.5h21.7c0.5,0,1-0.1,1.5-0.3c0.4-0.2,0.9-0.5,1.2-0.8
				c0.4-0.3,0.6-0.7,0.8-1.2c0.2-0.5,0.3-1,0.3-1.5c0-0.5-0.1-1-0.3-1.5c-0.1-0.5-0.4-0.9-0.8-1.2c-0.3-0.4-0.7-0.6-1.2-0.8
				c-0.5-0.2-1-0.2-1.5-0.3h-16.7c-0.8,0-1.7-0.2-2.4-0.5c-0.8-0.3-1.4-0.7-2-1.3c-0.6-0.6-1-1.2-1.3-2c-0.3-0.8-0.5-1.7-0.5-2.5
				c0-0.8,0.1-1.7,0.5-2.4c0.3-0.8,0.7-1.4,1.3-2c0.6-0.6,1.2-1,2-1.3c0.8-0.4,1.7-0.6,2.5-0.5h21.7v2.5h-21.7c-0.5,0-1,0.1-1.5,0.3
				l-1.2,0.8c-0.4,0.3-0.7,0.7-0.8,1.2c-0.2,0.5-0.3,1-0.3,1.5c0.1,1,0.5,2,1.2,2.8c0.7,0.8,1.7,1.1,2.7,1.1h16.4
				c0.9,0,1.7,0.2,2.5,0.5c0.8,0.3,1.4,0.7,2,1.3c0.6,0.6,1,1.2,1.3,2c0.3,0.8,0.5,1.7,0.5,2.5c0,0.9-0.2,1.7-0.5,2.5
				c-0.3,0.8-0.7,1.4-1.3,2c-0.6,0.6-1.2,1-2,1.3C180.1,22.7,179.3,22.9,178.4,22.9z"/>
		</g>
	</g>
</g>
</svg>
